# xmcd
#
# Track frame offsets: 
#        150
#        17739
#        35284
#        55534
#        81853
#        99857
#        123651
#        146137
#        166844
#        186169
#        203191
#        226965
#
# Disc length: 3356 seconds
#
# Revision: 0
# Processed by: cddbd v1.5.2PL0 Copyright (c) Steve Scherf et al.
# Submitted via: ExactAudioCopy v0.99pb5
#
DISCID=960d1a0c
DTITLE=Cee Cee James - Blood Red Blues
DYEAR=2012
DGENRE=Blues
TTITLE0=Blood Red Blues
TTITLE1=Let's All Get Loose
TTITLE2=Feel My Love Come Down
TTITLE3=Comfort Of A Good Heart
TTITLE4=Thick Like Blood
TTITLE5=I Got A Right To Sing The Blues
TTITLE6=Worn Out Sins
TTITLE7=Walk On
TTITLE8=Wounds
TTITLE9=Cover Me With Love
TTITLE10=100 Ways To Make Love
TTITLE11=I'm Takin' Mine
EXTD=
EXTT0=
EXTT1=
EXTT2=
EXTT3=
EXTT4=
EXTT5=
EXTT6=
EXTT7=
EXTT8=
EXTT9=
EXTT10=
EXTT11=
PLAYORDER=
